# xmcd
#
# Track frame offsets:
#	150
#	6682
#	24831
#	45588
#	60039
#	75552
#	91202
#	109688
#	115880
#	134297
#	142247
#	161840
#	168335
#
# Disc length: 2482 seconds
#
# Revision: 1
# Processed by: cddbd v1.5.2PL0 Copyright (c) Steve Scherf et al.
# Submitted via: audiograbber 1.83.01
#
DISCID=a109b00d
DTITLE=Case - Here my love
DYEAR=2010
DGENRE=R&B
TTITLE0=Back again
TTITLE1=Foreplay
TTITLE2=I´m ready
TTITLE3=Old fashioned lovin´
TTITLE4=Labels
TTITLE5=Love 2 Love
TTITLE6=Jealousy
TTITLE7=Here
TTITLE8=Just leave
TTITLE9=My love
TTITLE10=Feels so long
TTITLE11=She´s gone
TTITLE12=Labels (Remix)
EXTD=
EXTT0=
EXTT1=
EXTT2=
EXTT3=
EXTT4=
EXTT5=
EXTT6=
EXTT7=
EXTT8=
EXTT9=
EXTT10=
EXTT11=
EXTT12=
PLAYORDER=
